# BCH inspired fictional floor. Metres. Y up.
mtllib BCH_Materials.mtl
o Ceiling_Ceiling_1158
usemtl White
s off
v -18.00000 3.22000 -12.00000
v 18.00000 3.22000 -12.00000
v 18.00000 3.38000 -12.00000
v -18.00000 3.38000 -12.00000
v -18.00000 3.22000 12.00000
v 18.00000 3.22000 12.00000
v 18.00000 3.38000 12.00000
v -18.00000 3.38000 12.00000
f 1 4 3 2
f 5 6 7 8
f 1 5 8 4
f 2 3 7 6
f 1 2 6 5
f 4 8 7 3
o Ceiling_Luminaire_frame_1159
usemtl Trim
s off
v -13.10000 3.12500 -8.25000
v -10.90000 3.12500 -8.25000
v -10.90000 3.21500 -8.25000
v -13.10000 3.21500 -8.25000
v -13.10000 3.12500 -7.75000
v -10.90000 3.12500 -7.75000
v -10.90000 3.21500 -7.75000
v -13.10000 3.21500 -7.75000
f 9 12 11 10
f 13 14 15 16
f 9 13 16 12
f 10 11 15 14
f 9 10 14 13
f 12 16 15 11
o Ceiling_Luminaire_diffuser_1160
usemtl Light
s off
v -13.02500 3.09250 -8.19000
v -10.97500 3.09250 -8.19000
v -10.97500 3.12750 -8.19000
v -13.02500 3.12750 -8.19000
v -13.02500 3.09250 -7.81000
v -10.97500 3.09250 -7.81000
v -10.97500 3.12750 -7.81000
v -13.02500 3.12750 -7.81000
f 17 20 19 18
f 21 22 23 24
f 17 21 24 20
f 18 19 23 22
f 17 18 22 21
f 20 24 23 19
o Ceiling_Luminaire_frame_1161
usemtl Trim
s off
v -13.10000 3.12500 -4.25000
v -10.90000 3.12500 -4.25000
v -10.90000 3.21500 -4.25000
v -13.10000 3.21500 -4.25000
v -13.10000 3.12500 -3.75000
v -10.90000 3.12500 -3.75000
v -10.90000 3.21500 -3.75000
v -13.10000 3.21500 -3.75000
f 25 28 27 26
f 29 30 31 32
f 25 29 32 28
f 26 27 31 30
f 25 26 30 29
f 28 32 31 27
o Ceiling_Luminaire_diffuser_1162
usemtl Light
s off
v -13.02500 3.09250 -4.19000
v -10.97500 3.09250 -4.19000
v -10.97500 3.12750 -4.19000
v -13.02500 3.12750 -4.19000
v -13.02500 3.09250 -3.81000
v -10.97500 3.09250 -3.81000
v -10.97500 3.12750 -3.81000
v -13.02500 3.12750 -3.81000
f 33 36 35 34
f 37 38 39 40
f 33 37 40 36
f 34 35 39 38
f 33 34 38 37
f 36 40 39 35
o Ceiling_Luminaire_frame_1163
usemtl Trim
s off
v -13.10000 3.12500 -0.25000
v -10.90000 3.12500 -0.25000
v -10.90000 3.21500 -0.25000
v -13.10000 3.21500 -0.25000
v -13.10000 3.12500 0.25000
v -10.90000 3.12500 0.25000
v -10.90000 3.21500 0.25000
v -13.10000 3.21500 0.25000
f 41 44 43 42
f 45 46 47 48
f 41 45 48 44
f 42 43 47 46
f 41 42 46 45
f 44 48 47 43
o Ceiling_Luminaire_diffuser_1164
usemtl Light
s off
v -13.02500 3.09250 -0.19000
v -10.97500 3.09250 -0.19000
v -10.97500 3.12750 -0.19000
v -13.02500 3.12750 -0.19000
v -13.02500 3.09250 0.19000
v -10.97500 3.09250 0.19000
v -10.97500 3.12750 0.19000
v -13.02500 3.12750 0.19000
f 49 52 51 50
f 53 54 55 56
f 49 53 56 52
f 50 51 55 54
f 49 50 54 53
f 52 56 55 51
o Ceiling_Luminaire_frame_1165
usemtl Trim
s off
v -13.10000 3.12500 3.75000
v -10.90000 3.12500 3.75000
v -10.90000 3.21500 3.75000
v -13.10000 3.21500 3.75000
v -13.10000 3.12500 4.25000
v -10.90000 3.12500 4.25000
v -10.90000 3.21500 4.25000
v -13.10000 3.21500 4.25000
f 57 60 59 58
f 61 62 63 64
f 57 61 64 60
f 58 59 63 62
f 57 58 62 61
f 60 64 63 59
o Ceiling_Luminaire_diffuser_1166
usemtl Light
s off
v -13.02500 3.09250 3.81000
v -10.97500 3.09250 3.81000
v -10.97500 3.12750 3.81000
v -13.02500 3.12750 3.81000
v -13.02500 3.09250 4.19000
v -10.97500 3.09250 4.19000
v -10.97500 3.12750 4.19000
v -13.02500 3.12750 4.19000
f 65 68 67 66
f 69 70 71 72
f 65 69 72 68
f 66 67 71 70
f 65 66 70 69
f 68 72 71 67
o Ceiling_Luminaire_frame_1167
usemtl Trim
s off
v -13.10000 3.12500 7.75000
v -10.90000 3.12500 7.75000
v -10.90000 3.21500 7.75000
v -13.10000 3.21500 7.75000
v -13.10000 3.12500 8.25000
v -10.90000 3.12500 8.25000
v -10.90000 3.21500 8.25000
v -13.10000 3.21500 8.25000
f 73 76 75 74
f 77 78 79 80
f 73 77 80 76
f 74 75 79 78
f 73 74 78 77
f 76 80 79 75
o Ceiling_Luminaire_diffuser_1168
usemtl Light
s off
v -13.02500 3.09250 7.81000
v -10.97500 3.09250 7.81000
v -10.97500 3.12750 7.81000
v -13.02500 3.12750 7.81000
v -13.02500 3.09250 8.19000
v -10.97500 3.09250 8.19000
v -10.97500 3.12750 8.19000
v -13.02500 3.12750 8.19000
f 81 84 83 82
f 85 86 87 88
f 81 85 88 84
f 82 83 87 86
f 81 82 86 85
f 84 88 87 83
o Ceiling_Luminaire_frame_1169
usemtl Trim
s off
v -1.10000 3.12500 -8.25000
v 1.10000 3.12500 -8.25000
v 1.10000 3.21500 -8.25000
v -1.10000 3.21500 -8.25000
v -1.10000 3.12500 -7.75000
v 1.10000 3.12500 -7.75000
v 1.10000 3.21500 -7.75000
v -1.10000 3.21500 -7.75000
f 89 92 91 90
f 93 94 95 96
f 89 93 96 92
f 90 91 95 94
f 89 90 94 93
f 92 96 95 91
o Ceiling_Luminaire_diffuser_1170
usemtl Light
s off
v -1.02500 3.09250 -8.19000
v 1.02500 3.09250 -8.19000
v 1.02500 3.12750 -8.19000
v -1.02500 3.12750 -8.19000
v -1.02500 3.09250 -7.81000
v 1.02500 3.09250 -7.81000
v 1.02500 3.12750 -7.81000
v -1.02500 3.12750 -7.81000
f 97 100 99 98
f 101 102 103 104
f 97 101 104 100
f 98 99 103 102
f 97 98 102 101
f 100 104 103 99
o Ceiling_Luminaire_frame_1171
usemtl Trim
s off
v -1.10000 3.12500 -4.25000
v 1.10000 3.12500 -4.25000
v 1.10000 3.21500 -4.25000
v -1.10000 3.21500 -4.25000
v -1.10000 3.12500 -3.75000
v 1.10000 3.12500 -3.75000
v 1.10000 3.21500 -3.75000
v -1.10000 3.21500 -3.75000
f 105 108 107 106
f 109 110 111 112
f 105 109 112 108
f 106 107 111 110
f 105 106 110 109
f 108 112 111 107
o Ceiling_Luminaire_diffuser_1172
usemtl Light
s off
v -1.02500 3.09250 -4.19000
v 1.02500 3.09250 -4.19000
v 1.02500 3.12750 -4.19000
v -1.02500 3.12750 -4.19000
v -1.02500 3.09250 -3.81000
v 1.02500 3.09250 -3.81000
v 1.02500 3.12750 -3.81000
v -1.02500 3.12750 -3.81000
f 113 116 115 114
f 117 118 119 120
f 113 117 120 116
f 114 115 119 118
f 113 114 118 117
f 116 120 119 115
o Ceiling_Luminaire_frame_1173
usemtl Trim
s off
v -1.10000 3.12500 -0.25000
v 1.10000 3.12500 -0.25000
v 1.10000 3.21500 -0.25000
v -1.10000 3.21500 -0.25000
v -1.10000 3.12500 0.25000
v 1.10000 3.12500 0.25000
v 1.10000 3.21500 0.25000
v -1.10000 3.21500 0.25000
f 121 124 123 122
f 125 126 127 128
f 121 125 128 124
f 122 123 127 126
f 121 122 126 125
f 124 128 127 123
o Ceiling_Luminaire_diffuser_1174
usemtl Light
s off
v -1.02500 3.09250 -0.19000
v 1.02500 3.09250 -0.19000
v 1.02500 3.12750 -0.19000
v -1.02500 3.12750 -0.19000
v -1.02500 3.09250 0.19000
v 1.02500 3.09250 0.19000
v 1.02500 3.12750 0.19000
v -1.02500 3.12750 0.19000
f 129 132 131 130
f 133 134 135 136
f 129 133 136 132
f 130 131 135 134
f 129 130 134 133
f 132 136 135 131
o Ceiling_Luminaire_frame_1175
usemtl Trim
s off
v -1.10000 3.12500 3.75000
v 1.10000 3.12500 3.75000
v 1.10000 3.21500 3.75000
v -1.10000 3.21500 3.75000
v -1.10000 3.12500 4.25000
v 1.10000 3.12500 4.25000
v 1.10000 3.21500 4.25000
v -1.10000 3.21500 4.25000
f 137 140 139 138
f 141 142 143 144
f 137 141 144 140
f 138 139 143 142
f 137 138 142 141
f 140 144 143 139
o Ceiling_Luminaire_diffuser_1176
usemtl Light
s off
v -1.02500 3.09250 3.81000
v 1.02500 3.09250 3.81000
v 1.02500 3.12750 3.81000
v -1.02500 3.12750 3.81000
v -1.02500 3.09250 4.19000
v 1.02500 3.09250 4.19000
v 1.02500 3.12750 4.19000
v -1.02500 3.12750 4.19000
f 145 148 147 146
f 149 150 151 152
f 145 149 152 148
f 146 147 151 150
f 145 146 150 149
f 148 152 151 147
o Ceiling_Luminaire_frame_1177
usemtl Trim
s off
v -1.10000 3.12500 7.75000
v 1.10000 3.12500 7.75000
v 1.10000 3.21500 7.75000
v -1.10000 3.21500 7.75000
v -1.10000 3.12500 8.25000
v 1.10000 3.12500 8.25000
v 1.10000 3.21500 8.25000
v -1.10000 3.21500 8.25000
f 153 156 155 154
f 157 158 159 160
f 153 157 160 156
f 154 155 159 158
f 153 154 158 157
f 156 160 159 155
o Ceiling_Luminaire_diffuser_1178
usemtl Light
s off
v -1.02500 3.09250 7.81000
v 1.02500 3.09250 7.81000
v 1.02500 3.12750 7.81000
v -1.02500 3.12750 7.81000
v -1.02500 3.09250 8.19000
v 1.02500 3.09250 8.19000
v 1.02500 3.12750 8.19000
v -1.02500 3.12750 8.19000
f 161 164 163 162
f 165 166 167 168
f 161 165 168 164
f 162 163 167 166
f 161 162 166 165
f 164 168 167 163
o Ceiling_Luminaire_frame_1179
usemtl Trim
s off
v 10.90000 3.12500 -8.25000
v 13.10000 3.12500 -8.25000
v 13.10000 3.21500 -8.25000
v 10.90000 3.21500 -8.25000
v 10.90000 3.12500 -7.75000
v 13.10000 3.12500 -7.75000
v 13.10000 3.21500 -7.75000
v 10.90000 3.21500 -7.75000
f 169 172 171 170
f 173 174 175 176
f 169 173 176 172
f 170 171 175 174
f 169 170 174 173
f 172 176 175 171
o Ceiling_Luminaire_diffuser_1180
usemtl Light
s off
v 10.97500 3.09250 -8.19000
v 13.02500 3.09250 -8.19000
v 13.02500 3.12750 -8.19000
v 10.97500 3.12750 -8.19000
v 10.97500 3.09250 -7.81000
v 13.02500 3.09250 -7.81000
v 13.02500 3.12750 -7.81000
v 10.97500 3.12750 -7.81000
f 177 180 179 178
f 181 182 183 184
f 177 181 184 180
f 178 179 183 182
f 177 178 182 181
f 180 184 183 179
o Ceiling_Luminaire_frame_1181
usemtl Trim
s off
v 10.90000 3.12500 -4.25000
v 13.10000 3.12500 -4.25000
v 13.10000 3.21500 -4.25000
v 10.90000 3.21500 -4.25000
v 10.90000 3.12500 -3.75000
v 13.10000 3.12500 -3.75000
v 13.10000 3.21500 -3.75000
v 10.90000 3.21500 -3.75000
f 185 188 187 186
f 189 190 191 192
f 185 189 192 188
f 186 187 191 190
f 185 186 190 189
f 188 192 191 187
o Ceiling_Luminaire_diffuser_1182
usemtl Light
s off
v 10.97500 3.09250 -4.19000
v 13.02500 3.09250 -4.19000
v 13.02500 3.12750 -4.19000
v 10.97500 3.12750 -4.19000
v 10.97500 3.09250 -3.81000
v 13.02500 3.09250 -3.81000
v 13.02500 3.12750 -3.81000
v 10.97500 3.12750 -3.81000
f 193 196 195 194
f 197 198 199 200
f 193 197 200 196
f 194 195 199 198
f 193 194 198 197
f 196 200 199 195
o Ceiling_Luminaire_frame_1183
usemtl Trim
s off
v 10.90000 3.12500 -0.25000
v 13.10000 3.12500 -0.25000
v 13.10000 3.21500 -0.25000
v 10.90000 3.21500 -0.25000
v 10.90000 3.12500 0.25000
v 13.10000 3.12500 0.25000
v 13.10000 3.21500 0.25000
v 10.90000 3.21500 0.25000
f 201 204 203 202
f 205 206 207 208
f 201 205 208 204
f 202 203 207 206
f 201 202 206 205
f 204 208 207 203
o Ceiling_Luminaire_diffuser_1184
usemtl Light
s off
v 10.97500 3.09250 -0.19000
v 13.02500 3.09250 -0.19000
v 13.02500 3.12750 -0.19000
v 10.97500 3.12750 -0.19000
v 10.97500 3.09250 0.19000
v 13.02500 3.09250 0.19000
v 13.02500 3.12750 0.19000
v 10.97500 3.12750 0.19000
f 209 212 211 210
f 213 214 215 216
f 209 213 216 212
f 210 211 215 214
f 209 210 214 213
f 212 216 215 211
o Ceiling_Luminaire_frame_1185
usemtl Trim
s off
v 10.90000 3.12500 3.75000
v 13.10000 3.12500 3.75000
v 13.10000 3.21500 3.75000
v 10.90000 3.21500 3.75000
v 10.90000 3.12500 4.25000
v 13.10000 3.12500 4.25000
v 13.10000 3.21500 4.25000
v 10.90000 3.21500 4.25000
f 217 220 219 218
f 221 222 223 224
f 217 221 224 220
f 218 219 223 222
f 217 218 222 221
f 220 224 223 219
o Ceiling_Luminaire_diffuser_1186
usemtl Light
s off
v 10.97500 3.09250 3.81000
v 13.02500 3.09250 3.81000
v 13.02500 3.12750 3.81000
v 10.97500 3.12750 3.81000
v 10.97500 3.09250 4.19000
v 13.02500 3.09250 4.19000
v 13.02500 3.12750 4.19000
v 10.97500 3.12750 4.19000
f 225 228 227 226
f 229 230 231 232
f 225 229 232 228
f 226 227 231 230
f 225 226 230 229
f 228 232 231 227
o Ceiling_Luminaire_frame_1187
usemtl Trim
s off
v 10.90000 3.12500 7.75000
v 13.10000 3.12500 7.75000
v 13.10000 3.21500 7.75000
v 10.90000 3.21500 7.75000
v 10.90000 3.12500 8.25000
v 13.10000 3.12500 8.25000
v 13.10000 3.21500 8.25000
v 10.90000 3.21500 8.25000
f 233 236 235 234
f 237 238 239 240
f 233 237 240 236
f 234 235 239 238
f 233 234 238 237
f 236 240 239 235
o Ceiling_Luminaire_diffuser_1188
usemtl Light
s off
v 10.97500 3.09250 7.81000
v 13.02500 3.09250 7.81000
v 13.02500 3.12750 7.81000
v 10.97500 3.12750 7.81000
v 10.97500 3.09250 8.19000
v 13.02500 3.09250 8.19000
v 13.02500 3.12750 8.19000
v 10.97500 3.12750 8.19000
f 241 244 243 242
f 245 246 247 248
f 241 245 248 244
f 242 243 247 246
f 241 242 246 245
f 244 248 247 243
